<svg width="100" height="50" viewBox="0 0 100 50" fill="none" xmlns="http://www.w3.org/2000/svg">
<rect width="100" height="50" rx="10" fill="#F5F6FA"/>
<path d="M40 33H60V35H40V33ZM42 25H44V32H42V25ZM47 25H49V32H47V25ZM51 25H53V32H51V25ZM56 25H58V32H56V25ZM40 20L50 15L60 20V24H40V20ZM50 21C50.2652 21 50.5196 20.8946 50.7071 20.7071C50.8946 20.5196 51 20.2652 51 20C51 19.7348 50.8946 19.4804 50.7071 19.2929C50.5196 19.1054 50.2652 19 50 19C49.7348 19 49.4804 19.1054 49.2929 19.2929C49.1054 19.4804 49 19.7348 49 20C49 20.2652 49.1054 20.5196 49.2929 20.7071C49.4804 20.8946 49.7348 21 50 21Z" fill="#1D1E20"/>
</svg>
